<?xml version="1.0" encoding="UTF-8" standalone="no"?><svg xmlns="http://www.w3.org/2000/svg" xmlns:xlink="http://www.w3.org/1999/xlink" contentStyleType="text/css" height="406px" preserveAspectRatio="none" style="width:434px;height:406px;background:#FFFFFF;" version="1.1" viewBox="0 0 434 406" width="434px" zoomAndPan="magnify"><defs/><g><!--MD5=[f2ba7f6ab60af8dd0d3e354f91729b14]
class Truck--><g id="elem_Truck"><rect codeLine="1" fill="#F1F1F1" height="48" id="Truck" rx="2.5" ry="2.5" style="stroke:#181818;stroke-width:0.5;" width="68" x="48" y="7"/><ellipse cx="63" cy="23" fill="#ADD1B2" rx="11" ry="11" style="stroke:#181818;stroke-width:1.0;"/><path d="M65.7656,18.875 Q65.9219,18.6563 66.1094,18.5469 Q66.2969,18.4375 66.5156,18.4375 Q66.8906,18.4375 67.125,18.7031 Q67.3594,18.9531 67.3594,19.5625 L67.3594,21.0156 Q67.3594,21.625 67.125,21.8906 Q66.8906,22.1563 66.5156,22.1563 Q66.1719,22.1563 65.9688,21.9531 Q65.7656,21.7656 65.6563,21.25 Q65.6094,20.8906 65.4219,20.7031 Q65.0938,20.3281 64.4844,20.1094 Q63.875,19.8906 63.25,19.8906 Q62.4844,19.8906 61.8438,20.2188 Q61.2188,20.5469 60.7188,21.2969 Q60.2344,22.0469 60.2344,23.0781 L60.2344,24.1719 Q60.2344,25.4063 61.125,26.2344 Q62.0156,27.0469 63.6094,27.0469 Q64.5469,27.0469 65.2031,26.7969 Q65.5938,26.6406 66.0156,26.2031 Q66.2813,25.9375 66.4219,25.8594 Q66.5781,25.7813 66.7813,25.7813 Q67.1094,25.7813 67.3594,26.0469 Q67.625,26.2969 67.625,26.6406 Q67.625,26.9844 67.2813,27.3906 Q66.7813,27.9688 65.9844,28.2969 Q64.9063,28.75 63.6094,28.75 Q62.0938,28.75 60.8906,28.125 Q59.9063,27.625 59.2188,26.5625 Q58.5313,25.4844 58.5313,24.2031 L58.5313,23.0469 Q58.5313,21.7188 59.1406,20.5781 Q59.7656,19.4219 60.8594,18.8125 Q61.9531,18.1875 63.1875,18.1875 Q63.9219,18.1875 64.5625,18.3594 Q65.2188,18.5156 65.7656,18.875 Z " fill="#000000"/><text fill="#000000" font-family="sans-serif" font-size="14" lengthAdjust="spacing" textLength="36" x="77" y="28.7285">Truck</text><line style="stroke:#181818;stroke-width:0.5;" x1="49" x2="115" y1="39" y2="39"/><line style="stroke:#181818;stroke-width:0.5;" x1="49" x2="115" y1="47" y2="47"/></g><!--MD5=[b4d3d50c0abf08df45181fececb9f04d]
class Store--><g id="elem_Store"><rect codeLine="2" fill="#F1F1F1" height="48" id="Store" rx="2.5" ry="2.5" style="stroke:#181818;stroke-width:0.5;" width="66" x="136" y="351"/><ellipse cx="151" cy="367" fill="#ADD1B2" rx="11" ry="11" style="stroke:#181818;stroke-width:1.0;"/><path d="M153.7656,362.875 Q153.9219,362.6563 154.1094,362.5469 Q154.2969,362.4375 154.5156,362.4375 Q154.8906,362.4375 155.125,362.7031 Q155.3594,362.9531 155.3594,363.5625 L155.3594,365.0156 Q155.3594,365.625 155.125,365.8906 Q154.8906,366.1563 154.5156,366.1563 Q154.1719,366.1563 153.9688,365.9531 Q153.7656,365.7656 153.6563,365.25 Q153.6094,364.8906 153.4219,364.7031 Q153.0938,364.3281 152.4844,364.1094 Q151.875,363.8906 151.25,363.8906 Q150.4844,363.8906 149.8438,364.2188 Q149.2188,364.5469 148.7188,365.2969 Q148.2344,366.0469 148.2344,367.0781 L148.2344,368.1719 Q148.2344,369.4063 149.125,370.2344 Q150.0156,371.0469 151.6094,371.0469 Q152.5469,371.0469 153.2031,370.7969 Q153.5938,370.6406 154.0156,370.2031 Q154.2813,369.9375 154.4219,369.8594 Q154.5781,369.7813 154.7813,369.7813 Q155.1094,369.7813 155.3594,370.0469 Q155.625,370.2969 155.625,370.6406 Q155.625,370.9844 155.2813,371.3906 Q154.7813,371.9688 153.9844,372.2969 Q152.9063,372.75 151.6094,372.75 Q150.0938,372.75 148.8906,372.125 Q147.9063,371.625 147.2188,370.5625 Q146.5313,369.4844 146.5313,368.2031 L146.5313,367.0469 Q146.5313,365.7188 147.1406,364.5781 Q147.7656,363.4219 148.8594,362.8125 Q149.9531,362.1875 151.1875,362.1875 Q151.9219,362.1875 152.5625,362.3594 Q153.2188,362.5156 153.7656,362.875 Z " fill="#000000"/><text fill="#000000" font-family="sans-serif" font-size="14" lengthAdjust="spacing" textLength="34" x="165" y="372.7285">Store</text><line style="stroke:#181818;stroke-width:0.5;" x1="137" x2="201" y1="383" y2="383"/><line style="stroke:#181818;stroke-width:0.5;" x1="137" x2="201" y1="391" y2="391"/></g><!--MD5=[fff5db4abcb6eec6574b9ea9c3ee0eae]
class Delivery--><g id="elem_Delivery"><rect codeLine="3" fill="#F1F1F1" height="48" id="Delivery" rx="2.5" ry="2.5" style="stroke:#181818;stroke-width:0.5;" width="83" x="192.5" y="116"/><ellipse cx="207.5" cy="132" fill="#ADD1B2" rx="11" ry="11" style="stroke:#181818;stroke-width:1.0;"/><path d="M210.2656,127.875 Q210.4219,127.6563 210.6094,127.5469 Q210.7969,127.4375 211.0156,127.4375 Q211.3906,127.4375 211.625,127.7031 Q211.8594,127.9531 211.8594,128.5625 L211.8594,130.0156 Q211.8594,130.625 211.625,130.8906 Q211.3906,131.1563 211.0156,131.1563 Q210.6719,131.1563 210.4688,130.9531 Q210.2656,130.7656 210.1563,130.25 Q210.1094,129.8906 209.9219,129.7031 Q209.5938,129.3281 208.9844,129.1094 Q208.375,128.8906 207.75,128.8906 Q206.9844,128.8906 206.3438,129.2188 Q205.7188,129.5469 205.2188,130.2969 Q204.7344,131.0469 204.7344,132.0781 L204.7344,133.1719 Q204.7344,134.4063 205.625,135.2344 Q206.5156,136.0469 208.1094,136.0469 Q209.0469,136.0469 209.7031,135.7969 Q210.0938,135.6406 210.5156,135.2031 Q210.7813,134.9375 210.9219,134.8594 Q211.0781,134.7813 211.2813,134.7813 Q211.6094,134.7813 211.8594,135.0469 Q212.125,135.2969 212.125,135.6406 Q212.125,135.9844 211.7813,136.3906 Q211.2813,136.9688 210.4844,137.2969 Q209.4063,137.75 208.1094,137.75 Q206.5938,137.75 205.3906,137.125 Q204.4063,136.625 203.7188,135.5625 Q203.0313,134.4844 203.0313,133.2031 L203.0313,132.0469 Q203.0313,130.7188 203.6406,129.5781 Q204.2656,128.4219 205.3594,127.8125 Q206.4531,127.1875 207.6875,127.1875 Q208.4219,127.1875 209.0625,127.3594 Q209.7188,127.5156 210.2656,127.875 Z " fill="#000000"/><text fill="#000000" font-family="sans-serif" font-size="14" lengthAdjust="spacing" textLength="51" x="221.5" y="137.7285">Delivery</text><line style="stroke:#181818;stroke-width:0.5;" x1="193.5" x2="274.5" y1="148" y2="148"/><line style="stroke:#181818;stroke-width:0.5;" x1="193.5" x2="274.5" y1="156" y2="156"/></g><!--MD5=[4e2ad48a1abc117fdc6f339da0f64213]
class Package--><g id="elem_Package"><rect codeLine="4" fill="#F1F1F1" height="48" id="Package" rx="2.5" ry="2.5" style="stroke:#181818;stroke-width:0.5;" width="87" x="319.5" y="116"/><ellipse cx="334.5" cy="132" fill="#ADD1B2" rx="11" ry="11" style="stroke:#181818;stroke-width:1.0;"/><path d="M337.2656,127.875 Q337.4219,127.6563 337.6094,127.5469 Q337.7969,127.4375 338.0156,127.4375 Q338.3906,127.4375 338.625,127.7031 Q338.8594,127.9531 338.8594,128.5625 L338.8594,130.0156 Q338.8594,130.625 338.625,130.8906 Q338.3906,131.1563 338.0156,131.1563 Q337.6719,131.1563 337.4688,130.9531 Q337.2656,130.7656 337.1563,130.25 Q337.1094,129.8906 336.9219,129.7031 Q336.5938,129.3281 335.9844,129.1094 Q335.375,128.8906 334.75,128.8906 Q333.9844,128.8906 333.3438,129.2188 Q332.7188,129.5469 332.2188,130.2969 Q331.7344,131.0469 331.7344,132.0781 L331.7344,133.1719 Q331.7344,134.4063 332.625,135.2344 Q333.5156,136.0469 335.1094,136.0469 Q336.0469,136.0469 336.7031,135.7969 Q337.0938,135.6406 337.5156,135.2031 Q337.7813,134.9375 337.9219,134.8594 Q338.0781,134.7813 338.2813,134.7813 Q338.6094,134.7813 338.8594,135.0469 Q339.125,135.2969 339.125,135.6406 Q339.125,135.9844 338.7813,136.3906 Q338.2813,136.9688 337.4844,137.2969 Q336.4063,137.75 335.1094,137.75 Q333.5938,137.75 332.3906,137.125 Q331.4063,136.625 330.7188,135.5625 Q330.0313,134.4844 330.0313,133.2031 L330.0313,132.0469 Q330.0313,130.7188 330.6406,129.5781 Q331.2656,128.4219 332.3594,127.8125 Q333.4531,127.1875 334.6875,127.1875 Q335.4219,127.1875 336.0625,127.3594 Q336.7188,127.5156 337.2656,127.875 Z " fill="#000000"/><text fill="#000000" font-family="sans-serif" font-size="14" lengthAdjust="spacing" textLength="55" x="348.5" y="137.7285">Package</text><line style="stroke:#181818;stroke-width:0.5;" x1="320.5" x2="405.5" y1="148" y2="148"/><line style="stroke:#181818;stroke-width:0.5;" x1="320.5" x2="405.5" y1="156" y2="156"/></g><!--MD5=[a5440a800cc62e48f91f20df5c0d1942]
class Sales_Preview--><g id="elem_Sales_Preview"><rect codeLine="5" fill="#F1F1F1" height="48" id="Sales_Preview" rx="2.5" ry="2.5" style="stroke:#181818;stroke-width:0.5;" width="124" x="303" y="225"/><ellipse cx="318" cy="241" fill="#ADD1B2" rx="11" ry="11" style="stroke:#181818;stroke-width:1.0;"/><path d="M320.7656,236.875 Q320.9219,236.6563 321.1094,236.5469 Q321.2969,236.4375 321.5156,236.4375 Q321.8906,236.4375 322.125,236.7031 Q322.3594,236.9531 322.3594,237.5625 L322.3594,239.0156 Q322.3594,239.625 322.125,239.8906 Q321.8906,240.1563 321.5156,240.1563 Q321.1719,240.1563 320.9688,239.9531 Q320.7656,239.7656 320.6563,239.25 Q320.6094,238.8906 320.4219,238.7031 Q320.0938,238.3281 319.4844,238.1094 Q318.875,237.8906 318.25,237.8906 Q317.4844,237.8906 316.8438,238.2188 Q316.2188,238.5469 315.7188,239.2969 Q315.2344,240.0469 315.2344,241.0781 L315.2344,242.1719 Q315.2344,243.4063 316.125,244.2344 Q317.0156,245.0469 318.6094,245.0469 Q319.5469,245.0469 320.2031,244.7969 Q320.5938,244.6406 321.0156,244.2031 Q321.2813,243.9375 321.4219,243.8594 Q321.5781,243.7813 321.7813,243.7813 Q322.1094,243.7813 322.3594,244.0469 Q322.625,244.2969 322.625,244.6406 Q322.625,244.9844 322.2813,245.3906 Q321.7813,245.9688 320.9844,246.2969 Q319.9063,246.75 318.6094,246.75 Q317.0938,246.75 315.8906,246.125 Q314.9063,245.625 314.2188,244.5625 Q313.5313,243.4844 313.5313,242.2031 L313.5313,241.0469 Q313.5313,239.7188 314.1406,238.5781 Q314.7656,237.4219 315.8594,236.8125 Q316.9531,236.1875 318.1875,236.1875 Q318.9219,236.1875 319.5625,236.3594 Q320.2188,236.5156 320.7656,236.875 Z " fill="#000000"/><text fill="#000000" font-family="sans-serif" font-size="14" lengthAdjust="spacing" textLength="92" x="332" y="246.7285">Sales_Preview</text><line style="stroke:#181818;stroke-width:0.5;" x1="304" x2="426" y1="257" y2="257"/><line style="stroke:#181818;stroke-width:0.5;" x1="304" x2="426" y1="265" y2="265"/></g><!--MD5=[4a18dac6e05ffa249516e780245dc4bc]
class Delivery_Schedule--><g id="elem_Delivery_Schedule"><rect codeLine="6" fill="#F1F1F1" height="48" id="Delivery_Schedule" rx="2.5" ry="2.5" style="stroke:#181818;stroke-width:0.5;" width="150" x="7" y="116"/><ellipse cx="22" cy="132" fill="#ADD1B2" rx="11" ry="11" style="stroke:#181818;stroke-width:1.0;"/><path d="M24.7656,127.875 Q24.9219,127.6563 25.1094,127.5469 Q25.2969,127.4375 25.5156,127.4375 Q25.8906,127.4375 26.125,127.7031 Q26.3594,127.9531 26.3594,128.5625 L26.3594,130.0156 Q26.3594,130.625 26.125,130.8906 Q25.8906,131.1563 25.5156,131.1563 Q25.1719,131.1563 24.9688,130.9531 Q24.7656,130.7656 24.6563,130.25 Q24.6094,129.8906 24.4219,129.7031 Q24.0938,129.3281 23.4844,129.1094 Q22.875,128.8906 22.25,128.8906 Q21.4844,128.8906 20.8438,129.2188 Q20.2188,129.5469 19.7188,130.2969 Q19.2344,131.0469 19.2344,132.0781 L19.2344,133.1719 Q19.2344,134.4063 20.125,135.2344 Q21.0156,136.0469 22.6094,136.0469 Q23.5469,136.0469 24.2031,135.7969 Q24.5938,135.6406 25.0156,135.2031 Q25.2813,134.9375 25.4219,134.8594 Q25.5781,134.7813 25.7813,134.7813 Q26.1094,134.7813 26.3594,135.0469 Q26.625,135.2969 26.625,135.6406 Q26.625,135.9844 26.2813,136.3906 Q25.7813,136.9688 24.9844,137.2969 Q23.9063,137.75 22.6094,137.75 Q21.0938,137.75 19.8906,137.125 Q18.9063,136.625 18.2188,135.5625 Q17.5313,134.4844 17.5313,133.2031 L17.5313,132.0469 Q17.5313,130.7188 18.1406,129.5781 Q18.7656,128.4219 19.8594,127.8125 Q20.9531,127.1875 22.1875,127.1875 Q22.9219,127.1875 23.5625,127.3594 Q24.2188,127.5156 24.7656,127.875 Z " fill="#000000"/><text fill="#000000" font-family="sans-serif" font-size="14" lengthAdjust="spacing" textLength="118" x="36" y="137.7285">Delivery_Schedule</text><line style="stroke:#181818;stroke-width:0.5;" x1="8" x2="156" y1="148" y2="148"/><line style="stroke:#181818;stroke-width:0.5;" x1="8" x2="156" y1="156" y2="156"/></g><!--MD5=[11b747870319a085bc745183e08c5f76]
class Storage--><g id="elem_Storage"><rect codeLine="7" fill="#F1F1F1" height="48" id="Storage" rx="2.5" ry="2.5" style="stroke:#181818;stroke-width:0.5;" width="82" x="186" y="225"/><ellipse cx="201" cy="241" fill="#ADD1B2" rx="11" ry="11" style="stroke:#181818;stroke-width:1.0;"/><path d="M203.7656,236.875 Q203.9219,236.6563 204.1094,236.5469 Q204.2969,236.4375 204.5156,236.4375 Q204.8906,236.4375 205.125,236.7031 Q205.3594,236.9531 205.3594,237.5625 L205.3594,239.0156 Q205.3594,239.625 205.125,239.8906 Q204.8906,240.1563 204.5156,240.1563 Q204.1719,240.1563 203.9688,239.9531 Q203.7656,239.7656 203.6563,239.25 Q203.6094,238.8906 203.4219,238.7031 Q203.0938,238.3281 202.4844,238.1094 Q201.875,237.8906 201.25,237.8906 Q200.4844,237.8906 199.8438,238.2188 Q199.2188,238.5469 198.7188,239.2969 Q198.2344,240.0469 198.2344,241.0781 L198.2344,242.1719 Q198.2344,243.4063 199.125,244.2344 Q200.0156,245.0469 201.6094,245.0469 Q202.5469,245.0469 203.2031,244.7969 Q203.5938,244.6406 204.0156,244.2031 Q204.2813,243.9375 204.4219,243.8594 Q204.5781,243.7813 204.7813,243.7813 Q205.1094,243.7813 205.3594,244.0469 Q205.625,244.2969 205.625,244.6406 Q205.625,244.9844 205.2813,245.3906 Q204.7813,245.9688 203.9844,246.2969 Q202.9063,246.75 201.6094,246.75 Q200.0938,246.75 198.8906,246.125 Q197.9063,245.625 197.2188,244.5625 Q196.5313,243.4844 196.5313,242.2031 L196.5313,241.0469 Q196.5313,239.7188 197.1406,238.5781 Q197.7656,237.4219 198.8594,236.8125 Q199.9531,236.1875 201.1875,236.1875 Q201.9219,236.1875 202.5625,236.3594 Q203.2188,236.5156 203.7656,236.875 Z " fill="#000000"/><text fill="#000000" font-family="sans-serif" font-size="14" lengthAdjust="spacing" textLength="50" x="215" y="246.7285">Storage</text><line style="stroke:#181818;stroke-width:0.5;" x1="187" x2="267" y1="257" y2="257"/><line style="stroke:#181818;stroke-width:0.5;" x1="187" x2="267" y1="265" y2="265"/></g><!--MD5=[fc92a9f5bb5fae84dd7fa4034e6b4444]
class Route--><g id="elem_Route"><rect codeLine="8" fill="#F1F1F1" height="48" id="Route" rx="2.5" ry="2.5" style="stroke:#181818;stroke-width:0.5;" width="70" x="251" y="351"/><ellipse cx="266" cy="367" fill="#ADD1B2" rx="11" ry="11" style="stroke:#181818;stroke-width:1.0;"/><path d="M268.7656,362.875 Q268.9219,362.6563 269.1094,362.5469 Q269.2969,362.4375 269.5156,362.4375 Q269.8906,362.4375 270.125,362.7031 Q270.3594,362.9531 270.3594,363.5625 L270.3594,365.0156 Q270.3594,365.625 270.125,365.8906 Q269.8906,366.1563 269.5156,366.1563 Q269.1719,366.1563 268.9688,365.9531 Q268.7656,365.7656 268.6563,365.25 Q268.6094,364.8906 268.4219,364.7031 Q268.0938,364.3281 267.4844,364.1094 Q266.875,363.8906 266.25,363.8906 Q265.4844,363.8906 264.8438,364.2188 Q264.2188,364.5469 263.7188,365.2969 Q263.2344,366.0469 263.2344,367.0781 L263.2344,368.1719 Q263.2344,369.4063 264.125,370.2344 Q265.0156,371.0469 266.6094,371.0469 Q267.5469,371.0469 268.2031,370.7969 Q268.5938,370.6406 269.0156,370.2031 Q269.2813,369.9375 269.4219,369.8594 Q269.5781,369.7813 269.7813,369.7813 Q270.1094,369.7813 270.3594,370.0469 Q270.625,370.2969 270.625,370.6406 Q270.625,370.9844 270.2813,371.3906 Q269.7813,371.9688 268.9844,372.2969 Q267.9063,372.75 266.6094,372.75 Q265.0938,372.75 263.8906,372.125 Q262.9063,371.625 262.2188,370.5625 Q261.5313,369.4844 261.5313,368.2031 L261.5313,367.0469 Q261.5313,365.7188 262.1406,364.5781 Q262.7656,363.4219 263.8594,362.8125 Q264.9531,362.1875 266.1875,362.1875 Q266.9219,362.1875 267.5625,362.3594 Q268.2188,362.5156 268.7656,362.875 Z " fill="#000000"/><text fill="#000000" font-family="sans-serif" font-size="14" lengthAdjust="spacing" textLength="38" x="280" y="372.7285">Route</text><line style="stroke:#181818;stroke-width:0.5;" x1="252" x2="320" y1="383" y2="383"/><line style="stroke:#181818;stroke-width:0.5;" x1="252" x2="320" y1="391" y2="391"/></g><!--MD5=[2f4aa312f466ba1402de0be2be201fe2]
link Truck to Delivery_Schedule--><g id="link_Truck_Delivery_Schedule"><path codeLine="10" d="M82,55.22 C82,73.16 82,97.89 82,115.83 " fill="none" id="Truck-Delivery_Schedule" style="stroke:#181818;stroke-width:1.0;"/></g><!--MD5=[243c53b67c0b3796883ead03aa070a3a]
link Delivery_Schedule to Delivery--><g id="link_Delivery_Schedule_Delivery"><path codeLine="11" d="M157.11,140 C164.43,140 171.75,140 179.07,140 " fill="none" id="Delivery_Schedule-to-Delivery" style="stroke:#181818;stroke-width:1.0;"/><polygon fill="#181818" points="192.25,140,186.25,136,180.25,140,186.25,144,192.25,140" style="stroke:#181818;stroke-width:1.0;"/></g><!--MD5=[aa053f441f06c9a8b45659ec8d5c76b2]
link Delivery to Storage--><g id="link_Delivery_Storage"><path codeLine="12" d="M232.48,164.22 C231.31,182.16 229.69,206.89 228.52,224.83 " fill="none" id="Delivery-Storage" style="stroke:#181818;stroke-width:1.0;"/></g><!--MD5=[88f51ada027d6a378041d9fa9e00a7e2]
link Storage to Store--><g id="link_Storage_Store"><path codeLine="13" d="M209.12,273.1 C202.77,282.08 195.97,292.68 191,303 C183.61,318.35 177.99,336.75 174.28,350.97 " fill="none" id="Storage-Store" style="stroke:#181818;stroke-width:1.0;"/></g><!--MD5=[aff822159c0c2c859215b2faa9a99134]
link Delivery to Package--><g id="link_Delivery_Package"><path codeLine="14" d="M275.57,140 C290.14,140 304.71,140 319.29,140 " fill="none" id="Delivery-Package" style="stroke:#181818;stroke-width:1.0;"/></g><!--MD5=[6d79b827b02ca9a8a78a44d813385727]
link Package to Sales_Preview--><g id="link_Package_Sales_Preview"><path codeLine="15" d="M363.43,164.22 C363.77,182.16 364.23,206.89 364.57,224.83 " fill="none" id="Package-Sales_Preview" style="stroke:#181818;stroke-width:1.0;"/></g><!--MD5=[e824d48672856d6f9fea9f8c3243074f]
link Route to Storage--><g id="link_Route_Storage"><path codeLine="16" d="M279.31,350.75 C274.89,336.61 268.52,318.38 261,303 C256.01,292.78 249.46,282.12 243.45,273.06 " fill="none" id="Route-Storage" style="stroke:#181818;stroke-width:1.0;"/><text fill="#000000" font-family="sans-serif" font-size="13" lengthAdjust="spacing" textLength="63" x="270" y="317.4951">destination</text></g><!--MD5=[433df517ac16951d4a4858ea06adead3]
link Storage to Route--><g id="link_Storage_Route"><path codeLine="17" d="M218.77,273.13 C215.05,287.56 212.88,306.15 220,321 C224.7,330.8 232.19,339.36 240.46,346.58 " fill="none" id="Storage-to-Route" style="stroke:#181818;stroke-width:1.0;"/><polygon fill="#181818" points="250.82,354.71,248.5759,347.857,241.3869,347.2927,243.631,354.1457,250.82,354.71" style="stroke:#181818;stroke-width:1.0;"/><text fill="#000000" font-family="sans-serif" font-size="13" lengthAdjust="spacing" textLength="31" x="221" y="317.4951">origin</text></g><!--MD5=[50001ae0e808b750f84a1ff89d1b3031]
@startuml Domain Model
class Truck
class Store
class Delivery
class Package
class Sales_Preview
class Delivery_Schedule
class Storage
class Route 

Truck - - Delivery_Schedule
Delivery_Schedule -* Delivery
Delivery - - Storage
Storage - - Store
Delivery - Package
Package - - Sales_Preview
Route- - Storage: destination
Storage - -* Route: origin

@enduml

PlantUML version 1.2022.7(Mon Aug 22 18:01:30 BST 2022)
(GPL source distribution)
Java Runtime: OpenJDK Runtime Environment
JVM: OpenJDK 64-Bit Server VM
Default Encoding: Cp1252
Language: pt
Country: PT
--></g></svg>